<svg width="64" height="64" viewBox="0 0 64 64" fill="none" xmlns="http://www.w3.org/2000/svg">
<g id="Frame">
<path id="Vector" d="M27 6H15C13.344 6 12 7.344 12 9V55C12 56.656 13.344 58 15 58H49C50.656 58 52 56.656 52 55V31M27 6H28C34.3652 6 40.4697 8.52856 44.9706 13.0294C49.4714 17.5303 52 23.6348 52 30V31M27 6C29.3869 6 31.6761 6.94821 33.364 8.63604C35.0518 10.3239 36 12.6131 36 15V19C36 20.656 37.344 22 39 22H43C45.3869 22 47.6761 22.9482 49.364 24.636C51.0518 26.3239 52 28.6131 52 31M22.5 47L38 31M22.5 31L38 47" stroke="#C91523" stroke-width="4" stroke-linecap="round" stroke-linejoin="round"/>
</g>
</svg>
