<svg width="64" height="64" viewBox="0 0 64 64" fill="none" xmlns="http://www.w3.org/2000/svg">
<g id="Frame">
<path id="Vector" d="M32.0001 44V26M32.0001 26L40.0001 34M32.0001 26L24.0001 34M18.0001 52C15.1453 52.0031 12.3828 50.9883 10.2089 49.1379C8.03498 47.2874 6.59198 44.7225 6.13907 41.9038C5.68615 39.0851 6.25298 36.1973 7.73776 33.7589C9.22254 31.3206 11.528 29.4915 14.2401 28.6C13.5433 25.0298 14.2635 21.3286 16.2481 18.2801C18.2327 15.2316 21.3259 13.0752 24.8727 12.2676C28.4195 11.4601 32.1413 12.0647 35.2501 13.9534C38.3589 15.8422 40.6105 18.8668 41.5281 22.3867C42.9468 21.9253 44.4662 21.8698 45.9148 22.2264C47.3634 22.5831 48.6834 23.3377 49.7257 24.4049C50.7681 25.4722 51.4912 26.8097 51.8135 28.2663C52.1357 29.723 52.0443 31.2407 51.5494 32.648C53.7325 33.4819 55.5548 35.0536 56.7003 37.0906C57.8457 39.1275 58.242 41.5011 57.8205 43.7997C57.3989 46.0983 56.186 48.1767 54.3923 49.6746C52.5985 51.1725 50.337 51.9952 48.0001 52H18.0001Z" stroke="#25466F" stroke-width="4" stroke-linecap="round" stroke-linejoin="round"/>
</g>
</svg>
